<svg width="125" height="125" viewBox="0 0 125 125" xmlns="http://www.w3.org/2000/svg" xmlns:svg="http://www.w3.org/2000/svg">
 <!-- Created with SVG-edit - http://svg-edit.googlecode.com/ -->
 <g>
  <title>Layer 1</title>
  <g id="svg_9">
   <path id="svg_4" d="m3.99844,58.38646l32.38802,0l0,-32.38802l33.22396,0l0,32.38802l32.38802,0l0,33.22396l-32.38802,0l0,32.38802l-33.22396,0l0,-32.38802l-32.38802,0l0,-33.22396z" stroke-linecap="null" stroke-linejoin="null" stroke-dasharray="null" stroke-width="2" stroke="#000000" fill="#00ff00"/>
   <path stroke="#000000" id="svg_7" d="m105.87747,8.53898l0.32687,5.00008l-3.84655,0.87014c-9.73862,2.20291 -19.28465,11.54417 -24.59979,24.07211c-0.95358,2.24763 -1.59184,4.41311 -1.41834,4.8122c0.39798,0.91553 10.09561,8.20435 10.9157,8.20435c0.33455,0 1.13819,-1.34051 1.78588,-2.97893c2.76228,-6.9875 9.911,-14.27551 14.9442,-15.23526l2.04061,-0.38913l-0.35086,4.32129c-0.36423,4.48607 -0.2618,5.42808 0.59023,5.42808c0.54482,0 16.80897,-17.22733 17.27391,-18.29692c0.35272,-0.81137 -1.88427,-3.82141 -9.8935,-13.31242c-3.47901,-4.1226 -6.72365,-7.49566 -7.21034,-7.49566c-0.77897,0 -0.84575,0.59845 -0.55802,5.00008l0,0z" stroke-linecap="null" stroke-linejoin="null" stroke-dasharray="null" stroke-width="2" fill="#00ff00"/>
  </g>
 </g>
</svg>