<?xml version="1.0" encoding="UTF-8" standalone="no"?>
<svg id="svg2" xmlns:rdf="http://www.w3.org/1999/02/22-rdf-syntax-ns#" xmlns="http://www.w3.org/2000/svg" height="124.46" width="123.6" version="1.1" xmlns:cc="http://creativecommons.org/ns#" xmlns:dc="http://purl.org/dc/elements/1.1/" viewBox="0 0 123.60211 124.45952">
 <g id="layer1" transform="translate(-3.9132 -7.2753)">
  <g id="g3338" transform="matrix(1 0 0 -1 1.9148 133.27)">
   <title id="title3340">Layer 1</title>
   <g id="svg_9" stroke-linejoin="null" stroke="#000" stroke-linecap="null" stroke-width="2" fill="#0f0">
    <path id="svg_4" d="m3.9984 58.386h32.388v-32.388h33.224v32.388h32.388v33.224h-32.388v32.388h-33.224v-32.388h-32.388v-33.224z"/>
    <path id="svg_7" d="m105.88 8.539 0.32687 5.0001-3.8466 0.87014c-9.741 2.203-19.287 11.544-24.602 24.072-0.95358 2.2476-1.5918 4.4131-1.4183 4.8122 0.39798 0.91553 10.096 8.2044 10.916 8.2044 0.33455 0 1.1382-1.3405 1.7859-2.9789 2.7623-6.9875 9.911-14.276 14.944-15.235l2.0406-0.38913-0.35086 4.3213c-0.36423 4.4861-0.2618 5.4281 0.59023 5.4281 0.54482 0 16.809-17.227 17.274-18.297 0.35272-0.81137-1.8843-3.8214-9.8935-13.312-3.479-4.1226-6.7236-7.4957-7.2103-7.4957-0.77897 0-0.84575 0.59845-0.55802 5.0001z"/>
   </g>
  </g>
 </g>
</svg>
