<?xml version="1.0" standalone="no"?>
<!DOCTYPE svg PUBLIC "-//W3C//DTD SVG 20010904//EN"
 "http://www.w3.org/TR/2001/REC-SVG-20010904/DTD/svg10.dtd">
<svg version="1.0" xmlns="http://www.w3.org/2000/svg"
 width="260.000000pt" height="260.000000pt" viewBox="0 0 260.000000 260.000000"
 preserveAspectRatio="xMidYMid meet">
<metadata>
Created by potrace 1.11, written by Peter Selinger 2001-2013
</metadata>
<g transform="translate(0.000000,260.000000) scale(0.100000,-0.100000)"
fill="#000000" stroke="none">
<path d="M299 2385 c0 -6 -3 -19 -5 -30 -9 -39 -6 -134 6 -170 31 -95 98 -178
173 -217 47 -23 79 -26 370 -29 125 -2 227 -6 227 -9 0 -3 -30 -26 -67 -50
-112 -73 -210 -179 -265 -285 -41 -79 -59 -142 -73 -258 -8 -62 -8 -62 -103
-66 -74 -3 -161 -24 -200 -48 -48 -29 -100 -92 -116 -140 -28 -83 -23 -86 51
-37 59 40 71 44 110 40 24 -2 59 -14 77 -26 72 -44 126 -177 112 -274 -15 -96
-93 -213 -243 -361 -68 -66 -22 -58 96 18 248 159 411 308 488 445 61 106 65
136 68 467 3 297 5 327 27 395 16 52 36 79 95 136 46 45 97 73 109 61 3 -2 -7
-46 -21 -98 -55 -209 -68 -371 -51 -644 8 -142 -1 -201 -46 -293 -66 -133
-102 -162 -630 -502 -85 -56 -153 -107 -163 -123 l-17 -29 33 6 c19 3 73 26
121 50 83 43 288 119 353 131 17 2 59 10 95 17 75 14 328 17 445 5 44 -4 114
-15 155 -23 73 -15 100 -21 266 -63 44 -12 87 -21 95 -21 8 0 34 19 59 41 70
62 238 172 332 218 79 38 86 43 90 74 5 49 2 425 -6 575 -6 118 -12 166 -31
267 -26 136 -112 366 -171 455 -54 82 -67 96 -133 149 -115 90 -172 107 -436
128 -121 10 -209 8 -630 -12 -189 -9 -423 -18 -443 -16 -30 1 -100 34 -127 58
-12 10 -33 36 -48 58 -15 22 -27 35 -28 30z m1089 -1027 l-3 -593 -30 2 c-54
2 -210 15 -213 17 -1 2 13 36 32 78 35 75 79 215 71 227 -14 23 -21 310 -11
416 2 22 7 87 11 145 6 96 32 220 58 277 8 18 18 23 49 23 l38 0 -2 -592z
m282 560 c69 -21 114 -51 179 -116 91 -91 134 -181 135 -276 0 -78 -5 -84
-110 -137 -108 -54 -252 -48 -352 13 -60 37 -65 61 -64 273 0 105 1 207 1 228
l1 37 88 -5 c48 -3 103 -10 122 -17z m335 -708 c4 -91 8 -171 10 -177 6 -17 3
-17 -63 11 -124 52 -270 55 -404 9 l-84 -29 0 173 c0 95 2 172 5 170 168 -95
324 -100 481 -15 25 14 46 24 47 23 1 0 5 -75 8 -165z m-81 -229 c73 -37 85
-46 90 -74 11 -52 19 -215 12 -241 l-6 -24 -112 29 c-103 26 -397 85 -443 88
-15 1 -10 157 5 177 18 20 81 53 150 76 40 13 77 17 138 15 74 -3 91 -8 166
-46z"/>
</g>
</svg>
